# xmcd
#
# Track frame offsets:
# 150
# 18535
# 39442
# 62865
# 84762
# 100442
# 121652
# 137252
# 177230
# 196372
# 214720
#
# Disc length: 3132 seconds
#
#
# Revision: 0
# Processed by: cddbd v1.4PL0 Copyright (c) Steve Scherf et al.
# Submitted via: FreeRIP 2.40 
#
DISCID=8b0c3a0b
DTITLE=Tino Gonzales - Two Sides of a Heart
DYEAR=1994
DGENRE=Blues
TTITLE0=Talk about Love
TTITLE1=Piece of Work
TTITLE2=Young Thing
TTITLE3=Who's been talking
TTITLE4=Leave me alone
TTITLE5=Big Boss Man
TTITLE6=Twine Time
TTITLE7=Texas
TTITLE8=Body and Fender Man
TTITLE9=Poverty
TTITLE10=Two Sides of a Heart
EXTD=
EXTT0=
EXTT1=
EXTT2=
EXTT3=
EXTT4=
EXTT5=
EXTT6=
EXTT7=
EXTT8=
EXTT9=
EXTT10=
PLAYORDER=
